<svg width="32" height="32" viewBox="0 0 32 32" fill="none" xmlns="http://www.w3.org/2000/svg">
<path d="M0 12C0 5.37258 5.37258 0 12 0H20C26.6274 0 32 5.37258 32 12V20C32 26.6274 26.6274 32 20 32H12C5.37258 32 0 26.6274 0 20V12Z" fill="#DBEAFE"/>
<path d="M21 12.75H19.25V11.5C19.25 10.638 18.9076 9.8114 18.2981 9.2019C17.6886 8.59241 16.862 8.25 16 8.25C15.138 8.25 14.3114 8.59241 13.7019 9.2019C13.0924 9.8114 12.75 10.638 12.75 11.5V12.75H11C10.6685 12.75 10.3505 12.8817 10.1161 13.1161C9.8817 13.3505 9.75 13.6685 9.75 14V21C9.75 21.3315 9.8817 21.6495 10.1161 21.8839C10.3505 22.1183 10.6685 22.25 11 22.25H21C21.3315 22.25 21.6495 22.1183 21.8839 21.8839C22.1183 21.6495 22.25 21.3315 22.25 21V14C22.25 13.6685 22.1183 13.3505 21.8839 13.1161C21.6495 12.8817 21.3315 12.75 21 12.75ZM14.25 11.5C14.25 11.0359 14.4344 10.5908 14.7626 10.2626C15.0908 9.93437 15.5359 9.75 16 9.75C16.4641 9.75 16.9092 9.93437 17.2374 10.2626C17.5656 10.5908 17.75 11.0359 17.75 11.5V12.75H14.25V11.5ZM20.75 20.75H11.25V14.25H20.75V20.75Z" fill="#1C398E"/>
</svg>
