<svg width="32" height="32" viewBox="0 0 32 32" fill="none" xmlns="http://www.w3.org/2000/svg">
<path d="M0 16C0 7.16344 7.16344 0 16 0C24.8366 0 32 7.16344 32 16C32 24.8366 24.8366 32 16 32C7.16344 32 0 24.8366 0 16Z" fill="#FFFCC2"/>
<path d="M12.48 14.0764L10.1712 16.0002L12.48 17.9239C12.5565 17.9867 12.6199 18.0639 12.6665 18.1513C12.713 18.2387 12.7418 18.3344 12.7512 18.433C12.7606 18.5315 12.7503 18.6309 12.7211 18.7255C12.6919 18.8201 12.6442 18.9079 12.5808 18.984C12.5175 19.0601 12.4397 19.1228 12.3519 19.1687C12.2642 19.2146 12.1683 19.2426 12.0696 19.2512C11.971 19.2598 11.8717 19.2487 11.7773 19.2187C11.683 19.1888 11.5955 19.1404 11.52 19.0764L8.51996 16.5764C8.43547 16.506 8.36749 16.4179 8.32084 16.3183C8.27418 16.2188 8.25 16.1101 8.25 16.0002C8.25 15.8902 8.27418 15.7816 8.32084 15.682C8.36749 15.5824 8.43547 15.4943 8.51996 15.4239L11.52 12.9239C11.673 12.7985 11.8694 12.7386 12.0664 12.7574C12.2634 12.7761 12.445 12.8719 12.5716 13.024C12.6983 13.176 12.7597 13.3719 12.7425 13.5691C12.7254 13.7662 12.631 13.9486 12.48 14.0764ZM23.48 15.4239L20.48 12.9239C20.4044 12.8599 20.3169 12.8116 20.2226 12.7816C20.1283 12.7516 20.0289 12.7406 19.9303 12.7492C19.8317 12.7577 19.7357 12.7858 19.648 12.8316C19.5602 12.8775 19.4824 12.9402 19.4191 13.0163C19.3557 13.0924 19.3081 13.1802 19.2788 13.2748C19.2496 13.3694 19.2394 13.4688 19.2487 13.5674C19.2581 13.6659 19.2869 13.7616 19.3335 13.849C19.38 13.9364 19.4434 14.0137 19.52 14.0764L21.8287 16.0002L19.52 17.9239C19.4434 17.9867 19.38 18.0639 19.3335 18.1513C19.2869 18.2387 19.2581 18.3344 19.2487 18.433C19.2394 18.5315 19.2496 18.6309 19.2788 18.7255C19.3081 18.8201 19.3557 18.9079 19.4191 18.984C19.4824 19.0601 19.5602 19.1228 19.648 19.1687C19.7357 19.2146 19.8317 19.2426 19.9303 19.2512C20.0289 19.2598 20.1283 19.2487 20.2226 19.2187C20.3169 19.1888 20.4044 19.1404 20.48 19.0764L23.48 16.5764C23.5645 16.506 23.6324 16.4179 23.6791 16.3183C23.7257 16.2188 23.7499 16.1101 23.7499 16.0002C23.7499 15.8902 23.7257 15.7816 23.6791 15.682C23.6324 15.5824 23.5645 15.4943 23.48 15.4239ZM18.2562 9.79516C18.1636 9.76149 18.0653 9.74639 17.9669 9.75073C17.8685 9.75506 17.7719 9.77874 17.6826 9.82041C17.5934 9.86208 17.5132 9.92093 17.4467 9.9936C17.3801 10.0663 17.3286 10.1513 17.295 10.2439L13.295 21.2439C13.2272 21.4308 13.2363 21.637 13.3205 21.8171C13.4046 21.9972 13.5569 22.1366 13.7437 22.2045C13.8257 22.2348 13.9125 22.2503 14 22.2502C14.1539 22.2502 14.3042 22.2028 14.4303 22.1145C14.5565 22.0261 14.6524 21.9011 14.705 21.7564L18.705 10.7564C18.7386 10.6638 18.7537 10.5655 18.7494 10.4671C18.7451 10.3687 18.7214 10.2721 18.6797 10.1828C18.638 10.0936 18.5792 10.0134 18.5065 9.94686C18.4339 9.88035 18.3488 9.8288 18.2562 9.79516Z" fill="#724311"/>
</svg>
